<?xml version="1.0" standalone="no"?><!DOCTYPE svg PUBLIC "-//W3C//DTD SVG 1.1//EN" "http://www.w3.org/Graphics/SVG/1.1/DTD/svg11.dtd"><svg t="1514304016870" class="icon" style="" viewBox="0 0 1024 1024" version="1.1" xmlns="http://www.w3.org/2000/svg" p-id="3649" xmlns:xlink="http://www.w3.org/1999/xlink" width="200" height="200"><defs><style type="text/css"></style></defs><path d="M768 192H640c0-70.4-57.6-128-128-128s-128 57.6-128 128H256c-35.2 0-64 28.8-64 64v640c0 35.2 28.8 64 64 64h512c35.2 0 64-28.8 64-64V256c0-35.2-28.8-64-64-64z m-256-32c17.6 0 32 14.4 32 32s-14.4 32-32 32-32-14.4-32-32 14.4-32 32-32z m256 736H256V256h64v64h384v-64h64v640z m-59.2-404.8L459.2 740l-45.6-45.6 248.8-248.8 46.4 45.6z m-340 68l136 136-45.6 45.6-136-136 45.6-45.6z" p-id="3650"></path></svg>