<?xml version="1.0" standalone="no"?><!DOCTYPE svg PUBLIC "-//W3C//DTD SVG 1.1//EN" "http://www.w3.org/Graphics/SVG/1.1/DTD/svg11.dtd"><svg t="1513838904686" class="icon" style="" viewBox="0 0 1024 1024" version="1.1" xmlns="http://www.w3.org/2000/svg" p-id="5640" xmlns:xlink="http://www.w3.org/1999/xlink" width="200" height="200"><defs><style type="text/css"></style></defs><path d="M616 524.8c11.2 0 19.2-9.6 19.2-19.2 0-11.2-9.6-19.2-19.2-19.2h-72c-11.2 0-19.2 9.6-19.2 19.2 0 11.2 9.6 19.2 19.2 19.2h72zM278.4 536c-3.2 4.8-9.6 8-16 12.8-9.6 6.4-19.2 9.6-32 12.8l-33.6 9.6c-11.2 3.2-20.8 9.6-28.8 16s-12.8 16-14.4 28.8c-3.2 22.4-4.8 40-1.6 52.8 1.6 14.4 4.8 22.4 8 24 1.6 1.6 6.4 3.2 14.4 4.8 8 1.6 17.6 3.2 28.8 4.8 11.2 1.6 24 3.2 36.8 4.8 14.4 1.6 27.2 3.2 41.6 4.8 14.4 1.6 27.2 1.6 40 3.2 12.8 0 24 1.6 33.6 1.6 9.6 0 20.8 0 35.2-1.6 12.8 0 27.2-1.6 41.6-3.2l43.2-4.8c8-1.6 16-1.6 22.4-3.2v-140.8c-3.2 0-4.8-1.6-8-1.6-9.6-3.2-19.2-6.4-27.2-9.6-9.6-3.2-16-8-22.4-12.8-4.8-4.8-9.6-9.6-11.2-14.4-3.2-4.8-3.2-11.2-4.8-16 0-4.8 0-9.6 1.6-16 1.6-8 4.8-14.4 8-17.6 4.8-3.2 9.6-8 16-12.8 3.2-1.6 4.8-6.4 8-9.6 1.6-4.8 4.8-8 6.4-12.8 1.6-4.8 3.2-11.2 4.8-16l9.6-4.8c3.2-1.6 4.8-6.4 8-9.6 1.6-4.8 3.2-9.6 4.8-17.6v-12.8c-1.6-3.2-1.6-6.4-3.2-9.6-1.6-3.2-3.2-4.8-4.8-6.4 0-14.4-1.6-27.2-3.2-41.6-1.6-11.2-4.8-24-8-36.8-4.8-12.8-11.2-25.6-19.2-35.2-3.2-4.8-8-9.6-16-14.4-6.4-4.8-14.4-9.6-22.4-12.8-8-3.2-17.6-6.4-27.2-9.6-9.6-1.6-19.2-3.2-28.8-3.2-8 0-16 0-24 1.6s-16 3.2-24 6.4-16 8-24 14.4-14.4 12.8-20.8 22.4c-6.4 9.6-12.8 20.8-16 33.6-3.2 12.8-6.4 24-8 35.2-1.6 12.8-1.6 25.6-1.6 38.4-3.2 3.2-4.8 6.4-6.4 11.2-1.6 3.2-1.6 8-3.2 12.8 0 4.8 0 9.6 1.6 16s3.2 9.6 6.4 12.8c1.6 3.2 4.8 4.8 6.4 6.4 1.6 1.6 4.8 3.2 6.4 3.2 1.6 6.4 3.2 11.2 4.8 16 1.6 4.8 3.2 8 4.8 12.8 1.6 4.8 4.8 8 6.4 9.6 6.4 4.8 11.2 9.6 16 14.4 4.8 4.8 8 11.2 8 17.6v14.4c0 4.8-1.6 8-3.2 12.8-3.2 6.4-4.8 9.6-9.6 14.4zM544 288c-11.2 0-19.2 9.6-19.2 19.2 0 11.2 9.6 19.2 19.2 19.2h265.6c11.2 0 19.2-9.6 19.2-19.2 0-11.2-9.6-19.2-19.2-19.2H544z" p-id="5641"></path><path d="M113.6 758.4c-25.6-3.2-46.4-24-46.4-51.2v-499.2c0-28.8 22.4-49.6 51.2-49.6h753.6c28.8 0 54.4 20.8 54.4 49.6v308.8c12.8 9.6 38.4 20.8 49.6 32v-374.4c0-38.4-48-65.6-86.4-65.6h-803.2c-38.4 0-68.8 43.2-68.8 81.6v532.8c0 35.2 27.2 80 62.4 83.2h428.8c-3.2-11.2-4.8-36.8-6.4-49.6h-388.8z" p-id="5642"></path><path d="M544 425.6h265.6c11.2 0 19.2-9.6 19.2-19.2 0-11.2-9.6-19.2-19.2-19.2H544c-11.2 0-19.2 9.6-19.2 19.2 0 11.2 8 19.2 19.2 19.2zM777.6 513.6c-129.6 0-235.2 105.6-235.2 235.2s105.6 235.2 235.2 235.2 235.2-105.6 235.2-235.2-105.6-235.2-235.2-235.2z m0 425.6c-105.6 0-190.4-84.8-190.4-190.4s84.8-190.4 190.4-190.4 190.4 84.8 190.4 190.4-84.8 190.4-190.4 190.4z" p-id="5643"></path><path d="M673.6 646.4l32 24c3.2 0 6.4 0 8-1.6s3.2-3.2 3.2-6.4c0-4.8-1.6-8-4.8-9.6-1.6-1.6-6.4-4.8-14.4-11.2-6.4-4.8-11.2-8-16-8h-6.4v8c-1.6 3.2-1.6 3.2-1.6 4.8zM875.2 838.4h-86.4c-17.6 0-32-1.6-41.6-3.2-16-3.2-27.2-11.2-35.2-22.4l-1.6-11.2v-97.6c-1.6-1.6-1.6-4.8-3.2-4.8-3.2-3.2-6.4-4.8-11.2-4.8h-28.8c-1.6 1.6-3.2 3.2-3.2 4.8v8c0 1.6 1.6 1.6 1.6 3.2 1.6 1.6 3.2 3.2 4.8 3.2h19.2c1.6 1.6 3.2 3.2 3.2 4.8v88c-1.6 6.4-6.4 12.8-17.6 19.2-9.6 6.4-14.4 12.8-14.4 19.2 1.6 3.2 4.8 6.4 8 6.4s6.4 0 9.6-1.6c3.2-1.6 4.8-3.2 6.4-4.8l19.2-17.6c8 11.2 22.4 19.2 40 24 4.8 1.6 19.2 3.2 44.8 6.4h88c4.8-1.6 6.4-4.8 6.4-9.6 0-1.6 0-4.8-1.6-4.8-1.6-3.2-3.2-4.8-6.4-4.8z" p-id="5644"></path><path d="M739.2 824c3.2 0 4.8-1.6 8-4.8v-36.8h43.2v40c0 1.6 1.6 4.8 3.2 4.8 1.6 1.6 3.2 1.6 6.4 1.6s4.8 0 6.4-1.6c1.6-1.6 3.2-3.2 3.2-4.8v-40h44.8v25.6c-1.6 1.6-3.2 1.6-4.8 1.6-1.6 0-3.2 0-8-1.6s-6.4-1.6-9.6-1.6c-3.2 0-4.8 0-6.4 1.6-1.6 1.6-1.6 3.2-1.6 6.4 0 4.8 1.6 8 6.4 8 4.8 1.6 9.6 3.2 11.2 4.8 4.8 1.6 9.6 1.6 12.8 1.6 3.2 0 6.4 0 9.6-1.6s4.8-3.2 6.4-6.4l3.2-8v-112c-1.6-3.2-3.2-4.8-3.2-6.4-3.2-3.2-8-6.4-11.2-6.4h-40v-1.6-3.2c0-1.6 0-3.2-1.6-4.8 4.8-3.2 9.6-6.4 12.8-9.6 9.6-6.4 19.2-14.4 28.8-22.4 0-1.6-1.6-3.2-1.6-4.8-1.6-3.2-4.8-6.4-8-6.4h-110.4c-1.6 0-1.6 1.6-3.2 1.6-1.6 1.6-3.2 3.2-3.2 4.8v6.4c0 3.2 1.6 4.8 6.4 6.4h84.8c-3.2 3.2-8 6.4-11.2 9.6-4.8 3.2-8 4.8-11.2 4.8-3.2 0-4.8-1.6-8-3.2-1.6 0-4.8-1.6-9.6-4.8-4.8-3.2-9.6-3.2-12.8-3.2-3.2 0-4.8 0-6.4 1.6-1.6 1.6-3.2 3.2-3.2 6.4s1.6 6.4 6.4 8c3.2 1.6 6.4 3.2 11.2 4.8l20.8 9.6v1.6h-54.4c-3.2 1.6-4.8 1.6-6.4 3.2-3.2 3.2-6.4 6.4-6.4 9.6v120c1.6 1.6 1.6 1.6 1.6 3.2 0-3.2 3.2-1.6 4.8-1.6z m68.8-120h38.4l6.4 6.4v14.4h-44.8v-20.8z m0 38.4h44.8v20.8h-44.8v-20.8z m-62.4-32l6.4-6.4h36.8v19.2h-43.2v-12.8z m0 32h43.2v20.8h-43.2v-20.8z" p-id="5645"></path></svg>