<?xml version="1.0" standalone="no"?><!DOCTYPE svg PUBLIC "-//W3C//DTD SVG 1.1//EN" "http://www.w3.org/Graphics/SVG/1.1/DTD/svg11.dtd"><svg t="1513838978814" class="icon" style="" viewBox="0 0 1024 1024" version="1.1" xmlns="http://www.w3.org/2000/svg" p-id="9873" xmlns:xlink="http://www.w3.org/1999/xlink" width="200" height="200"><defs><style type="text/css"></style></defs><path d="M108.35687 870.792643l807.28319 0 0 89.697905-807.28319 0 0-89.697905Z" p-id="9874"></path><path d="M855.987449 631.597889 660.121526 631.597889c-17.661242-20.847817-30.203906-44.476981-32.260751-70.974471-8.40953-108.374266 108.385523-160.267147 108.385523-293.183366 0-112.889093-85.960791-203.930599-224.245274-203.930599s-224.245274 91.041506-224.245274 203.930599c0 132.916219 116.79403 184.809099 108.385523 293.183366-2.056845 26.497491-14.59951 50.126654-32.260751 70.974471L168.011528 631.597889c-32.945343 0-59.652612 26.709315-59.652612 59.652612L108.358917 810.993698l807.28319 0L915.642107 691.2505C915.642107 658.307204 888.932792 631.597889 855.987449 631.597889z" p-id="9875"></path></svg>