<?xml version="1.0" standalone="no"?><!DOCTYPE svg PUBLIC "-//W3C//DTD SVG 1.1//EN" "http://www.w3.org/Graphics/SVG/1.1/DTD/svg11.dtd"><svg t="1513764537191" class="icon" style="" viewBox="0 0 1024 1024" version="1.1" xmlns="http://www.w3.org/2000/svg" p-id="1113" xmlns:xlink="http://www.w3.org/1999/xlink" width="200" height="200"><defs><style type="text/css"></style></defs><path d="M128.611681 370.335537l0.051166-6.780427c46.615691 11.497868 181.673689 23.857361 386.40349 23.85736 59.45716 0 112.978121-1.049912 160.221098-2.814092v-102.463649c-49.254797 2.727111-104.148012 4.259-162.074306 4.259-190.999079 0-349.390505-16.564257-379.381563-38.264489h-5.183046v92.361571c-17.164938 4.397147-25.419949 8.918114-25.419949 15.093767 0 5.592368 9.252735 10.492982 25.38311 14.750959z m0.036839-23.152303v16.366759c-11.023054-2.726088-17.093307-5.393847-17.968233-7.843642 0.051165-0.144286 0.466628-4.037966 17.968233-8.523117zM926.904103 355.583554c0-6.576789-9.296737-11.80486-29.122271-16.449647v-91.00569h-5.192256c-17.374716 12.568247-77.875648 23.407106-162.78141 30.308283l-7.481392 0.601704a2143.342462 2143.342462 0 0 1-39.572274 2.671853v102.608959c107.313098-4.242627 180.864254-12.220323 215.027332-20.023033v-17.237593c20.535709 4.810562 21.562085 8.351202 21.668509 8.398274-0.977257 2.762927-8.312316 5.79396-21.668509 8.840343v6.985088c18.425651-4.476965 29.122271-9.689686 29.122271-15.698541z" p-id="1114"></path><path d="M128.611681 627.574249l0.050142-6.712889c30.833239 12.332886 167.500898 27.208689 386.404514 27.208689 59.683311 0 113.241111-1.107217 160.221098-2.966565V391.904785c-54.818513 2.055822-111.074771 2.974751-160.221098 2.974751-133.431965 0-319.312466-6.80294-386.417817-24.529673v227.371474c-17.164938 4.40431-25.419949 8.909927-25.419949 15.092743 0 5.587252 9.252735 10.486842 25.38311 14.760169z m0.036839-22.373567v15.587c-11.023054-2.726088-17.093307-5.393847-17.968233-7.842619 0.051165-0.145309 0.466628-3.252067 17.968233-7.744381zM897.781832 597.180008V371.282095c-42.562375 10.361999-126.395712 16.83748-215.027332 20.330024v253.176187c114.918309-4.818749 189.076286-14.180977 215.027332-22.726608v6.839779c18.425651-4.492314 29.122271-9.699919 29.122271-15.70775 0-6.576789-9.296737-11.360745-29.122271-16.013719z m0 24.727171v-17.705244c20.671809 4.841262 21.575388 8.859785 21.670555 8.859785-0.970094 2.772136-8.305153 5.789866-21.670555 8.845459z" p-id="1115"></path><path d="M682.7545 913.781736h-7.467065v-71.378677c-4.229325 7.896854-10.025331 15.421224-16.915251 15.772218-44.334741 2.252297-92.408643 2.252297-143.305847 2.252297-133.48313 0-319.386144-6.811126-386.417817-24.565488v76.461439c0 25.25929 172.172291 45.726437 384.565633 45.726437 212.388225 0 384.568702-20.467147 384.568702-45.726437V628.900453c-36.066427 11.94403-122.465193 19.300578-215.027331 23.179932v261.701351z" p-id="1116"></path><path d="M515.066337 852.960509c50.802036 0 98.780771 0 142.9262-2.238994 5.862521-0.298805 13.693884-16.436344 17.294898-27.563776v-170.779571c-54.686507 2.180666-111.103424 3.1569-160.221098 3.156899-137.799436 0-332.977697-7.677866-386.417817-27.962865V806.010197c-17.164938 4.40431-25.38311 8.909927-25.38311 15.093767 0 5.584182 9.252735 10.484795 25.38311 14.759145l0.050142-6.755868c46.602388 11.495822 181.614337 23.853267 386.367675 23.853268z m-404.349211-31.732725c0.050142-0.13917 0.429789-3.200902 17.930371-7.693216v-3.872191s0.335644 3.784186 0 3.872191v15.526625c-10.999518-2.714831-17.056468-5.38873-17.930371-7.833409zM408.606677 224.376257c31.136138 0.685615 64.779376 1.079588 100.874455 1.105171v-14.843057c-34.613332-0.021489-68.469418-0.320295-100.874455-0.87902v14.616906zM866.069573 213.277478c-5.462408 1.254573-11.697413 2.432399-18.557658 3.533476v23.822568c23.814382-5.494131 36.510542-11.20418 36.510542-16.30843 0-0.499373-0.532119-5.03569-17.952884-11.047614zM516.948197 225.481428a4921.222771 4921.222771 0 0 0 82.184791-0.732688v-14.699793c-26.65815 0.37146-54.17076 0.572028-82.184791 0.590447v14.842034zM339.378989 222.22936a3637.30095 3637.30095 0 0 0 61.761646 1.974981v-14.580066a4817.336726 4817.336726 0 0 1-61.761646-1.523703v14.128788zM210.621487 201.50127v12.027941c14.655791 1.563612 31.5516 3.054569 50.677192 4.42273v-13.111623c-4.462638-0.243547-8.845459-0.491187-13.139251-0.747013-14.226003-0.848321-26.659173-1.717108-37.537941-2.592035zM268.765745 218.469734c19.031449 1.286296 40.098253 2.452865 63.146179 3.448541v-14.062273c-22.334681-0.73678-43.473117-1.61887-63.146179-2.628874v13.242606zM606.600053 224.606501c24.405853-0.470721 47.308469-1.122567 68.687382-1.918699v-14.233166c-21.99085 0.63138-44.974307 1.12666-68.687382 1.487887v14.663978zM878.742197 209.733769c-0.255827 0.092098-0.540306 0.174985-0.803296 0.261966a54.970986 54.970986 0 0 1 4.063549 2.122337 139.572826 139.572826 0 0 0-3.260253-2.384303zM747.819378 205.720362v13.390985c19.892049-1.257643 37.777395-2.6432 53.462633-4.119831v-12.396332c-7.118118 0.503467-14.729469 1.00591-23.01211 1.498121-9.713222 0.581238-19.906375 1.119497-30.450523 1.627057zM682.7545 222.407416c20.714787-0.815575 39.922245-1.771343 57.597813-2.828419V206.066239a3722.668223 3722.668223 0 0 1-57.597813 2.162246v14.178931zM808.749076 214.261898c11.759835-1.176802 22.218024-2.402723 31.295774-3.649109v-11.348466c-8.830109 0.933255-19.162432 1.866511-31.295774 2.785439v12.212136zM210.621487 246.728334c14.69263 2.388397 31.646767 4.663206 50.677192 6.752798v-28.172643c-18.010189-1.239224-35.146475-2.683109-50.677192-4.356215v25.77606zM747.819378 255.282151c19.862373-1.936095 37.6986-4.071735 53.462633-6.339382v-26.532283c-16.668635 1.557472-34.737152 2.883677-53.462633 4.01443v28.857235zM682.7545 260.382309c20.658506-1.27197 39.84959-2.755764 57.597813-4.400217v-29.119201c-18.937305 1.082658-38.398542 1.971911-57.597813 2.704598v30.81482zM606.600053 263.831874c24.302499-0.743944 47.227628-1.765203 68.687382-3.01159v-30.975479c-24.026206 0.871857-47.439452 1.49505-68.687382 1.946329v32.04074z" p-id="1117"></path><path d="M513.213129 278.926664c212.388225 0 384.553353-20.479427 384.568703-45.730531 0-3.9121-2.232854-8.144494-6.293333-12.610202v-35.478026h-1.865487c0-2.858094-0.001023-10.161431-94.18101-16.551978-86.051865-34.414811-205.595518-67.225077-262.822894-74.502831V78.80788c0-8.826016-6.818289-15.965623-15.232936-15.965623-8.41567 0-15.225773 7.138584-15.225773 15.965623v14.35801c-51.17452 4.980431-171.446767 39.571251-261.110903 74.736144-101.005438 6.313799-104.142895 13.727653-104.238062 16.913205h-1.870604v37.374213c-4.056386 4.028757-6.29231 7.734148-6.29231 11.005658 0 25.251104 172.172291 45.731554 384.564609 45.731554z m288.068882-22.131043c-16.414855 2.322905-60.929698 6.815219-60.929698 6.815219-41.956577 3.706415-88.427982 6.182816-133.75226 7.597025l-7.468088 0.222058c-29.844725 0.857531-59.047838 1.2689-85.918836 1.268899-77.488839 0-174.192298-3.357468-250.441912-11.334139h-1.472538v-0.157589c-60.443627-6.395664-107.643626-15.734356-121.813346-28.649504h2.921539v-26.191522c3.744277 1.864464 9.28855 3.631714 16.428158 5.299703v2.141779h7.467065v-10.169617c1.407046-0.405229 2.711761-0.812505 4.221138-1.210571l1.597381 6.023181c8.568143 1.443885 18.929118 2.877537 31.033807 4.257977v-11.834537a869.500207 869.500207 0 0 1-19.199271-1.870603v-10.391675a629.875664 629.875664 0 0 1 11.598153-1.546215 633.013121 633.013121 0 0 0-4.139274 1.912559l-0.028652 0.00307c-1.990331 0.907673-3.937682 1.811252-5.855358 2.711761a0.624217 0.624217 0 0 0 0.086981 0.008187l-0.086981 0.042979h0.517793c60.827367 6.350638 179.427532 11.429307 327.165317 11.429306 152.754033 0 274.395464-5.429663 333.196685-12.079106-0.49528-0.24457-1.00591-0.49221-1.5104-0.735757l-0.414439-0.059352a491.99641 491.99641 0 0 0-3.948938-1.958608c5.27105 0.73678 9.920954 1.462305 14.041807 2.171456v7.039323c-2.207271 0.290619-4.588505 0.582261-7.065929 0.876974v11.105942c10.041704-1.523703 18.047028-3.066849 24.026206-4.593622a229.039463 229.039463 0 0 0-9.487072-5.617951v4.910847h-0.007163v-9.311063c2.741437-0.440022 5.296633-0.890276 7.66661-1.352811 8.283664 2.006703 12.335956 3.745301 14.309914 5.002944v4.39203c-1.870604 1.215688-5.13802 2.468215-9.79304 3.738138l3.004427 2.341324c2.686179-0.86981 4.949732-1.763157 6.789636-2.680039V232.850256h2.610455c-10.794857 9.463536-39.347147 16.994046-77.882812 22.837124l-7.467065 1.108241z m-634.979916-61.567218c3.177366 0.48914 6.573719 0.963954 10.187013 1.425466v1.487887a334.720388 334.720388 0 0 1-3.340071-0.423649 379.397936 379.397936 0 0 0-6.846942 3.559059v-6.048763z m10.187013-1.968841a457.226512 457.226512 0 0 1-11.524474-1.485841 322.130651 322.130651 0 0 1 11.524474-2.033309v3.51915z m-15.478529 1.103124h-2.175549v11.014868c-0.210801 0.12075-0.437975 0.24457-0.648776 0.363274 0.210801 0.048095 0.437975 0.095167 0.648776 0.143263v2.844791l-0.007163-0.415462c-8.264221-1.813299-13.760398-3.617387-16.420995-5.343705v-4.402264c1.972934-1.257643 6.02011-2.994194 14.287401-4.997827 1.375324 0.268106 2.815115 0.532119 4.316306 0.793062z m-18.602684-0.00307v-4.597715c1.790786 0.716314 3.988848 1.409093 6.573719 2.081405-2.778276 0.874927-4.920056 1.717108-6.573719 2.51631z m64.556295-12.389168c-8.708336 0.954745-16.327874 1.911536-23.00904 2.862187v-8.083095h-3.51915c12.282744-1.428535 28.355815-2.915399 49.353035-4.363378a918.148184 918.148184 0 0 0-22.824845 9.584286z m608.354512-5.169743v-3.032056c16.731056 1.352811 29.512151 2.703575 39.259142 3.976568v8.990768c-6.883781-1.178849-15.126512-2.378164-24.978904-3.579525a628.677373 628.677373 0 0 0-14.280238-6.355755z m68.703755 17.596774c-1.664919-0.805342-3.827165-1.653663-6.632048-2.535753 2.618641-0.678452 4.825912-1.379417 6.632048-2.102894v4.638647z m1.895163-9.448187c-0.025583 0.052189-0.080841 0.105401-0.11461 0.15759h-1.780553v1.369183c-2.356674 1.200338-6.771217 2.40477-13.091156 3.590782a191.084013 191.084013 0 0 0-8.886391-1.957585v-9.318226c20.653389 3.108804 23.503297 5.580089 23.87271 6.158256zM807.85266 173.186388v0.446161c-0.433882-0.181125-0.859577-0.36225-1.294482-0.543375l1.294482 0.097214z m-631.363552 4.036943v8.728801c-9.074679 1.436722-16.07307 2.849908-21.47101 4.204766-6.053879-1.12973-10.311857-2.270716-12.610203-3.40761v-1.935072h-1.48277c1.469468-1.174756 7.864108-4.174066 35.563983-7.590885z" p-id="1118"></path><path d="M808.749076 247.844761c11.759835-1.796926 22.182208-3.667529 31.295774-5.574972v-24.317848c-9.501398 1.366114-20.031219 2.606361-31.295774 3.737114v26.155706zM516.948197 265.220501c28.845978-0.032746 56.269561-0.441045 82.184791-1.16657V231.945653c-40.446177 0.802272-71.785953 0.970094-82.184791 1.001817v32.273031zM166.302095 237.410108c9.55154 2.730181 21.896706 5.446036 36.852326 8.05342v-25.345248c-14.029528-1.641383-26.51284-3.485381-36.852326-5.570879v22.862707zM142.414035 224.325092c0 3.397377 5.67321 7.061836 16.420995 10.754948v-21.273513c-15.859199 5.713119-16.420995 9.956769-16.420995 10.518565zM268.765745 254.290567c19.089777 1.986237 40.206724 3.784186 63.146179 5.327332V229.100862c-21.277606-0.88209-42.686195-1.964748-63.146179-3.29607v28.485775zM339.378989 260.113179c19.330254 1.228991 39.966247 2.263553 61.761646 3.080152v-31.831986a4352.43644 4352.43644 0 0 1-61.761646-1.957585v30.709419zM408.606677 263.47167c31.302937 1.085728 64.9912 1.708921 100.874455 1.748831v-32.273031c-11.951193-0.039909-51.560306-0.251733-100.874455-1.403976v31.928176z" p-id="1119"></path></svg>