<?xml version="1.0" standalone="no"?><!DOCTYPE svg PUBLIC "-//W3C//DTD SVG 1.1//EN" "http://www.w3.org/Graphics/SVG/1.1/DTD/svg11.dtd"><svg t="1514466434889" class="icon" style="" viewBox="0 0 1024 1024" version="1.1" xmlns="http://www.w3.org/2000/svg" p-id="5291" xmlns:xlink="http://www.w3.org/1999/xlink" width="200" height="200"><defs><style type="text/css"></style></defs><path d="M271.537374 112.46082c-107.880167 0-216.959684 34.994313-220.680562 101.868962l-0.2023 0 0 637.736767c0 69.175813 111.116969 105.37309 220.882862 105.37309 109.765893 0 220.882862-36.197277 220.882862-105.37309L492.420236 214.329782l-0.2023 0C488.497058 147.455133 379.41754 112.46082 271.537374 112.46082zM111.510732 286.699047c42.255443 20.233627 101.305412 30.623185 160.026642 30.623185 58.724843 0 117.774811-10.389558 160.030255-30.626797l0 89.734566c-0.0578 0-1.354688 0-1.354688 0-8.807281 12.726847-60.950145 41.576293-158.671954 41.576293-97.783222 0-149.926085-28.885571-158.686404-41.576293l-1.343851 0L111.510732 286.699047zM271.540986 173.317039c97.721809 0 149.864672 28.849446 158.671954 41.576293-8.807281 12.726847-60.950145 41.576293-158.671954 41.576293-97.783222 0-149.926085-28.885571-158.686404-41.576293C121.614902 202.202611 173.757765 173.317039 271.540986 173.317039zM271.537374 896.583419c-106.330403 0-158.736979-34.170663-160.026642-44.51687L111.510732 448.239328c42.255443 20.233627 101.301799 30.623185 160.026642 30.623185 58.724843 0 117.774811-10.389558 160.030255-30.626797l0 403.801933C430.277965 862.412757 377.871389 896.583419 271.537374 896.583419z" p-id="5292"></path><path d="M973.1468 478.298963c-3.720878-66.874649-112.800395-101.868962-220.680562-101.868962s-216.959684 34.994313-220.680562 101.868962l-0.2023 0 0 373.767586c0 69.175813 111.116969 105.37309 220.882862 105.37309s220.882862-36.197277 220.882862-105.37309L973.3491 478.298963 973.1468 478.298963zM592.435984 550.668228c42.255443 20.233627 101.305412 30.626797 160.030255 30.626797 58.724843 0 117.771199-10.389558 160.026642-30.623185l0 80.670797-1.354688 0c-8.807281 12.726847-60.950145 41.576293-158.671954 41.576293-97.783222 0-149.926085-28.885571-158.686404-41.576293l-1.343851 0L592.435984 550.668228zM752.466239 437.28622c97.721809 0 149.864672 28.849446 158.671954 41.576293-8.807281 12.726847-60.950145 41.576293-158.671954 41.576293-97.783222 0-149.926085-28.885571-158.686404-41.576293C602.540154 466.171791 654.683017 437.28622 752.466239 437.28622zM752.462626 896.583419c-106.330403 0-158.736979-34.170663-160.026642-44.51687l0-148.918197c42.255443 20.233627 101.305412 30.626797 160.030255 30.626797 58.724843 0 117.771199-10.389558 160.026642-30.623185l0 148.885684C911.203217 862.412757 858.796642 896.583419 752.462626 896.583419z" p-id="5293"></path></svg>